<svg width="15" height="15" viewBox="0 0 15 15" fill="none" xmlns="http://www.w3.org/2000/svg">
<path d="M9.6875 8.40234V10.8633C9.6875 12.9141 8.86719 13.7344 6.81641 13.7344H4.35547C2.30469 13.7344 1.48438 12.9141 1.48438 10.8633V8.40234C1.48438 6.35156 2.30469 5.53125 4.35547 5.53125H6.81641C8.86719 5.53125 9.6875 6.35156 9.6875 8.40234Z" stroke="#FAFAFA" stroke-opacity="0.8" stroke-width="1.17188" stroke-linecap="round" stroke-linejoin="round"/>
<path d="M13.2031 4.88672V7.34766C13.2031 9.39844 12.3828 10.2188 10.332 10.2188H9.6875V8.40234C9.6875 6.35156 8.86719 5.53125 6.81641 5.53125H5V4.88672C5 2.83594 5.82031 2.01562 7.87109 2.01562H10.332C12.3828 2.01562 13.2031 2.83594 13.2031 4.88672Z" stroke="#FAFAFA" stroke-opacity="0.8" stroke-width="1.17188" stroke-linecap="round" stroke-linejoin="round"/>
</svg>
